<svg width="634" height="119" viewBox="0 0 634 119" fill="none" xmlns="http://www.w3.org/2000/svg">
<path d="M167.081 85.3053C153.042 85.3053 142.873 74.78 142.988 60.2643C142.988 45.7486 153.042 35.3389 167.081 35.3389C178.463 35.3389 187.881 42.51 189.614 52.3992L182.219 53.3824C180.543 46.6739 174.246 42.2209 167.197 42.2209C157.779 42.2209 150.499 49.6233 150.615 60.2643C150.615 71.021 157.664 78.4234 167.081 78.4234C174.304 78.4234 180.486 73.9125 182.277 67.4354L189.788 68.4185C187.708 78.2499 178.175 85.3053 167.081 85.3053ZM219.254 85.3053C204.694 85.3053 194.41 74.9535 194.41 60.2643C194.41 45.5751 204.694 35.3389 219.254 35.3389C233.814 35.3389 244.098 45.6908 244.098 60.2643C244.098 74.8378 233.756 85.3053 219.254 85.3053ZM219.254 78.4234C229.25 78.4234 236.472 70.7896 236.472 60.2643C236.472 49.739 229.25 42.2209 219.254 42.2209C209.259 42.2209 202.037 49.8546 202.037 60.2643C202.037 70.674 209.201 78.4234 219.254 78.4234ZM272.698 85.3053C259.12 85.3053 248.721 74.78 248.721 60.2643C248.721 45.7486 259.063 35.3389 272.64 35.3389C280.036 35.3389 286.218 38.4618 289.569 44.0715H290.493V16.0811H298.12V83.4547H290.493V76.2836H289.569C286.16 81.9511 280.209 85.2475 272.698 85.2475V85.3053ZM273.507 78.4234C283.387 78.4234 290.667 70.4426 290.667 60.2643C290.667 50.086 283.445 42.2209 273.507 42.2209C263.569 42.2209 256.289 50.086 256.289 60.2643C256.289 70.4426 263.627 78.4234 273.507 78.4234ZM330.071 85.3053C315.569 85.3053 305.169 74.5487 305.169 59.7438C305.169 44.939 315.453 35.3389 329.724 35.3389C343.995 35.3389 353.991 45.6329 353.991 59.8016C353.991 60.727 353.991 61.8257 353.875 62.8089H312.911C314.009 72.1776 320.769 78.4234 330.244 78.4234C337.12 78.4234 343.186 74.9535 346.075 69.4595L352.373 72.6402C348.617 80.5053 340.297 85.3053 330.013 85.3053H330.071ZM313.027 56.1583H346.017C344.631 47.8305 338.16 42.2209 329.32 42.2209C320.48 42.2209 314.298 47.8305 313.027 56.1583ZM386.461 85.3053C378.835 85.3053 372.884 82.0089 369.533 76.3414H368.724V83.5126H361.097V16.0811H368.724V44.0715H369.533C372.942 38.4618 379.124 35.3389 386.577 35.3389C400.039 35.3389 410.381 45.8064 410.381 60.2643C410.381 74.7222 399.923 85.3053 386.461 85.3053ZM385.653 78.4234C395.532 78.4234 402.812 70.6161 402.812 60.2643C402.812 49.9125 395.59 42.2209 385.653 42.2209C375.715 42.2209 368.435 50.086 368.435 60.2643C368.435 70.4426 375.657 78.4234 385.653 78.4234ZM451.23 37.1317H458.856V83.4547H451.23V77.1511H450.305C447.128 82.1824 441.87 85.1318 435.803 85.1318C423.959 85.1318 416.563 76.6306 416.563 64.7752V37.1895H424.19V64.7752C424.19 72.6402 428.754 78.2499 436.728 78.2499C444.701 78.2499 451.23 72.2932 451.23 64.139V37.1895V37.1317ZM490.056 85.3053C476.478 85.3053 466.078 74.78 466.078 60.2643C466.078 45.7486 476.421 35.3389 489.998 35.3389C497.394 35.3389 503.576 38.4618 506.927 44.0715H507.851V16.0811H515.478V83.4547H507.851V76.2836H506.927C503.518 81.9511 497.567 85.2475 490.056 85.2475V85.3053ZM490.865 78.4234C500.745 78.4234 508.025 70.4426 508.025 60.2643C508.025 50.086 500.802 42.2209 490.865 42.2209C480.927 42.2209 473.647 50.086 473.647 60.2643C473.647 70.4426 480.985 78.4234 490.865 78.4234ZM546.504 85.3053C532.927 85.3053 522.527 74.78 522.527 60.2643C522.527 45.7486 532.869 35.3389 546.447 35.3389C553.842 35.3389 560.024 38.4618 563.375 44.0715H564.3V16.0811H571.926V83.4547H564.3V76.2836H563.375C559.966 81.9511 554.015 85.2475 546.504 85.2475V85.3053ZM547.313 78.4234C557.193 78.4234 564.473 70.4426 564.473 60.2643C564.473 50.086 557.251 42.2209 547.313 42.2209C537.375 42.2209 530.096 50.086 530.096 60.2643C530.096 70.4426 537.433 78.4234 547.313 78.4234ZM585.793 103.985C583.482 103.985 580.593 103.407 578.455 102.539V95.8307C580.535 96.6403 582.846 97.2186 584.579 97.2186C591.455 97.2186 593.304 89.874 596.019 83.3969L575.393 37.1895H583.366L599.197 73.392H600.122L613.699 37.1895H621.846L603.53 84.2065C599.428 94.5005 595.73 104.043 585.735 104.043L585.793 103.985Z" fill="#00C386"/>
<path d="M626.041 83.7888C623.185 83.7888 621.15 81.7876 621.15 78.9525C621.15 76.1771 623.185 74.1401 626.041 74.1401C628.921 74.1401 630.956 76.1294 630.956 78.9525C630.956 81.7876 628.921 83.7888 626.041 83.7888ZM626.053 83.1217C628.493 83.1217 630.218 81.3945 630.218 78.9525C630.218 76.5702 628.493 74.8191 626.053 74.8191C623.613 74.8191 621.888 76.5702 621.888 78.9525C621.888 81.3945 623.613 83.1217 626.053 83.1217ZM624.815 81.8591H624.054V75.9507H626.636C627.731 75.9507 628.552 76.7131 628.552 77.7614C628.552 78.762 627.731 79.4767 626.636 79.4767H626.6L628.505 81.8591H627.529L625.732 79.5005H624.815V81.8591ZM624.815 76.6178V78.8573H626.529C627.255 78.8573 627.791 78.4284 627.791 77.7494C627.791 77.0705 627.231 76.6178 626.529 76.6178H624.815Z" fill="#00C386"/>
<g clip-path="url(#clip0_10_478)">
<path d="M83.3624 28.8859H64.2503L55.3688 17.6892H35.4135C15.908 17.6892 0 33.6121 0 53.1923C0 72.7724 15.908 88.6954 35.4698 88.6954H54.5256L63.4071 99.892H83.4186C102.98 99.892 118.888 83.9691 118.888 64.389C118.888 44.8088 102.98 28.8859 83.4186 28.8859H83.3624ZM35.4698 35.4126H54.0759L62.9574 46.6093H83.4186C93.1995 46.6093 101.182 54.5989 101.182 64.389C101.182 74.179 93.1995 82.1686 83.4186 82.1686H64.7562L55.8747 70.972H35.4698C25.6889 70.972 17.7068 62.9824 17.7068 53.1923C17.7068 43.4022 25.6889 35.4126 35.4698 35.4126Z" fill="#00C386"/>
</g>
<defs>
<clipPath id="clip0_10_478">
<rect width="118.888" height="119" fill="white"/>
</clipPath>
</defs>
</svg>
